<svg width="24" height="24" viewBox="0 0 24 24" fill="none" xmlns="http://www.w3.org/2000/svg">
<path d="M1 12C1 5.925 5.925 1 12 1C18.075 1 23 5.925 23 12C23 18.075 18.075 23 12 23C5.925 23 1 18.075 1 12ZM12 2.5C9.48044 2.5 7.06408 3.50089 5.28249 5.28249C3.50089 7.06408 2.5 9.48044 2.5 12C2.5 14.5196 3.50089 16.9359 5.28249 18.7175C7.06408 20.4991 9.48044 21.5 12 21.5C14.5196 21.5 16.9359 20.4991 18.7175 18.7175C20.4991 16.9359 21.5 14.5196 21.5 12C21.5 9.48044 20.4991 7.06408 18.7175 5.28249C16.9359 3.50089 14.5196 2.5 12 2.5Z" fill="#333333"/>
<path d="M6.71973 11.3784L11.1464 8.73C11.2559 8.66337 11.3813 8.62737 11.5095 8.62576C11.6376 8.62415 11.7639 8.657 11.875 8.72086C11.9956 8.79109 12.0955 8.89198 12.1645 9.01329C12.2335 9.1346 12.2691 9.27201 12.2679 9.41156V11.2643L16.5035 8.7293C16.613 8.66267 16.7384 8.62666 16.8666 8.62506C16.9947 8.62345 17.121 8.65629 17.2322 8.72016C17.3528 8.79039 17.4526 8.89128 17.5216 9.01259C17.5906 9.1339 17.6263 9.27131 17.625 9.41086V14.5905C17.6263 14.7301 17.5907 14.8676 17.5217 14.989C17.4527 15.1103 17.3528 15.2112 17.2322 15.2815C17.121 15.3454 16.9947 15.3782 16.8666 15.3766C16.7384 15.375 16.613 15.339 16.5035 15.2723L12.2679 12.7362V14.5896C12.2694 14.7294 12.2338 14.867 12.1648 14.9885C12.0958 15.1101 11.9958 15.2112 11.875 15.2815C11.7639 15.3454 11.6376 15.3782 11.5095 15.3766C11.3813 15.375 11.2559 15.339 11.1464 15.2723L6.71973 12.6239C6.6145 12.558 6.52774 12.4664 6.4676 12.3578C6.40745 12.2491 6.3759 12.127 6.3759 12.0028C6.3759 11.8786 6.40745 11.7565 6.4676 11.6479C6.52774 11.5392 6.6145 11.4476 6.71973 11.3817V11.3784Z" fill="#333333"/>
</svg>
